PathFileType	4	(X/Y/Z)	D:\Share\Shared_Data\Ergonomics\Sit To Stand Pertubation\S2\Unperturbed.trc
DataRate	CameraRate	NumFrames	NumMarkers	Units	OrigDataRate	OrigDataStartFrame	OrigNumFrames	
100	100	6	18	m	100	2116	251
Frame#	Time	R_Toe			R_ASIS			R_Pelvis			V_Sacral			L_Pelvis			L_ASIS			Clavical			R_Acromium			L_Acromium			Sternum			Torso			R_Thigh_Med			R_Thigh_Lat			R_Thigh			R_Shank_Med			R_Shank_Lat			R_Shank			R_Heel			
		X1	Y1	Z1	X2	Y2	Z2	X3	Y3	Z3	X4	Y4	Z4	X5	Y5	Z5	X6	Y6	Z6	X7	Y7	Z7	X8	Y8	Z8	X9	Y9	Z9	X10	Y10	Z10	X11	Y11	Z11	X12	Y12	Z12	X13	Y13	Z13	X14	Y14	Z14	X15	Y15	Z15	X16	Y16	Z16	X17	Y17	Z17	X18	Y18	Z18	

2116	21.15	0.44446854	0.066074585	0.14372237	0.27827362	0.92829773	0.13921443	0.21426024	0.96293616	0.18149811	0.072624153	0.98578223	0.018704412	0.18613812	0.97692975	-0.15837302	0.27719107	0.94422632	-0.12902379	0.48633112	1.2798826	0.0049386649	0.4183931	1.3423583	0.2106207	0.40989194	1.3579562	-0.17798013	0.46269275	1.1193562	0.0027841785	0.47872083	1.2438325	-0.10908481	0.43768402	0.48325967	0.10199921	0.42048798	0.50252872	0.19747647	0.40695142	0.69401422	0.16629758	0.31259531	0.10803307	0.10188209	0.28823535	0.099460831	0.19395493	0.37451587	0.35646786	0.22047902	0.20705713	0.058545017	0.13913593
2117	21.16	0.44446103	0.065896294	0.14376854	0.28167081	0.93253589	0.13906581	0.21732939	0.96654541	0.18142433	0.07629007	0.98971655	0.018538006	0.18956628	0.98095068	-0.15848769	0.280771	0.94874933	-0.12922397	0.48704074	1.2866088	0.0051593728	0.41841263	1.3484783	0.21082095	0.40985913	1.3639995	-0.17778088	0.46478915	1.1257872	0.0028466582	0.47961563	1.2504409	-0.10898983	0.43645081	0.48367392	0.10188552	0.41931171	0.50307764	0.19723891	0.40828525	0.6944043	0.16617378	0.31261963	0.10802197	0.10178142	0.28823264	0.099572403	0.19378896	0.37348447	0.35698807	0.22035553	0.20711581	0.058627579	0.13911263
2118	21.17	0.44445462	0.065765869	0.14380463	0.28518463	0.93667004	0.13900082	0.22043599	0.97003284	0.18137181	0.079933197	0.9935285	0.018392311	0.19297008	0.98487524	-0.15858673	0.28431525	0.95317871	-0.12941467	0.48770767	1.293201	0.0053848672	0.41839313	1.354473	0.21102153	0.40978958	1.3699043	-0.17757591	0.46679642	1.1321011	0.0029159865	0.48045233	1.2569301	-0.10888047	0.4351922	0.48408551	0.10177422	0.41810645	0.50362009	0.19701132	0.40957166	0.69476135	0.16605383	0.31262631	0.10801394	0.10168677	0.28821201	0.09968103	0.19363255	0.37243396	0.35750626	0.22023259	0.20716341	0.058722183	0.1390961
2119	21.18	0.44445026	0.065672302	0.14383406	0.2887713	0.94070508	0.13900066	0.22358311	0.9734079	0.18133154	0.083549873	0.99721228	0.018265186	0.19634837	0.98869214	-0.1586675	0.28781989	0.95750549	-0.12959132	0.48833276	1.2996517	0.005615458	0.41833383	1.3603352	0.21122409	0.40968109	1.3756659	-0.1773643	0.46870911	1.138291	0.002990047	0.48124313	1.2632883	-0.10876077	0.43391089	0.48449289	0.10166183	0.41687921	0.5041539	0.19678674	0.41081366	0.69508307	0.1659299	0.31261731	0.10800837	0.10159885	0.28817645	0.099785378	0.19348749	0.3713703	0.35802063	0.22010793	0.20720256	0.058823193	0.13908434
2120	21.19	0.44444818	0.065605774	0.14386147	0.29238721	0.94464514	0.13904503	0.2267598	0.97667896	0.18129768	0.087137901	1.0007646	0.018153496	0.19969978	0.99239081	-0.1587285	0.29128079	0.96172272	-0.12974933	0.48891641	1.3059562	0.0058525095	0.4182337	1.3660574	0.21143106	0.40953149	1.3812815	-0.17714474	0.4705303	1.1443512	0.0030680246	0.48199738	1.2695057	-0.10863396	0.4326105	0.4848941	0.10154498	0.41563733	0.5046777	0.19655998	0.41201459	0.69536786	0.16579745	0.31259363	0.10800418	0.10151819	0.28812881	0.099884583	0.19335416	0.37029721	0.35853067	0.2199812	0.20723581	0.058925385	0.13907535
2121	21.2	0.44444876	0.065558342	0.1438914	0.29599826	0.94849146	0.13911783	0.22995125	0.97984937	0.18126897	0.09069635	1.0041835	0.018053514	0.20302281	0.99596143	-0.15877048	0.2946947	0.96582635	-0.12988339	0.48945776	1.312111	0.0060974207	0.41809219	1.3716312	0.21164453	0.4093392	1.3867482	-0.17691638	0.47226819	1.1502771	0.0031515577	0.48271942	1.2755754	-0.10850064	0.43129654	0.48528699	0.10141987	0.41438803	0.50519073	0.19632748	0.4131785	0.69561499	0.16565594	0.31255643	0.10799971	0.10144436	0.28807236	0.099978485	0.19323119	0.36921918	0.35903625	0.21985298	0.20726535	0.059025749	0.13906728
